<svg width="143" height="136" viewBox="0 0 143 136" fill="none" xmlns="http://www.w3.org/2000/svg">
<path d="M66.56 3.63526C68.0568 -0.971298 74.5739 -0.971299 76.0706 3.63525L89.3887 44.6241C90.0581 46.6842 91.9779 48.079 94.144 48.079H137.242C142.086 48.079 144.1 54.2771 140.181 57.1241L105.314 82.4566C103.562 83.7299 102.828 85.9867 103.498 88.0468L116.816 129.036C118.312 133.642 113.04 137.473 109.121 134.626L74.2543 109.293C72.5018 108.02 70.1288 108.02 68.3764 109.293L33.5092 134.626C29.5906 137.473 24.3182 133.642 25.815 129.036L39.1331 88.0468C39.8024 85.9867 39.0691 83.7299 37.3167 82.4566L2.44949 57.1241C-1.46907 54.2771 0.544801 48.079 5.38842 48.079H48.4867C50.6528 48.079 52.5726 46.6842 53.242 44.6241L66.56 3.63526Z" fill="#8A8A8A"/>
</svg>
